<svg width="193" height="30" viewBox="0 0 193 30" fill="none" xmlns="http://www.w3.org/2000/svg">
<path d="M46.8945 23.1799H43.3387V8.73627C43.3387 7.73086 43.5349 6.88484 43.9273 6.19821C44.3278 5.50341 44.8877 4.98027 45.607 4.62878C46.3345 4.26912 47.1969 4.08929 48.1941 4.08929C48.5211 4.08929 48.8358 4.11381 49.1383 4.16286C49.4407 4.20373 49.735 4.25686 50.0211 4.32225L49.9843 6.98293C49.829 6.94206 49.6655 6.91345 49.4938 6.8971C49.3222 6.88075 49.1219 6.87258 48.893 6.87258C48.468 6.87258 48.1042 6.94614 47.8018 7.09328C47.5075 7.23224 47.2827 7.44068 47.1274 7.7186C46.9721 7.99652 46.8945 8.33574 46.8945 8.73627V23.1799ZM49.5429 9.91335V12.4146H41.3647V9.91335H49.5429ZM50.8303 16.6815V16.424C50.8303 15.4513 50.9693 14.5562 51.2472 13.7388C51.5251 12.9132 51.9297 12.198 52.461 11.5931C52.9924 10.9882 53.6463 10.5182 54.4228 10.1831C55.1994 9.83978 56.0903 9.66812 57.0958 9.66812C58.1012 9.66812 58.9962 9.83978 59.781 10.1831C60.5657 10.5182 61.2237 10.9882 61.755 11.5931C62.2945 12.198 62.7032 12.9132 62.9811 13.7388C63.259 14.5562 63.398 15.4513 63.398 16.424V16.6815C63.398 17.6461 63.259 18.5411 62.9811 19.3667C62.7032 20.1841 62.2945 20.8994 61.755 21.5124C61.2237 22.1173 60.5698 22.5873 59.7932 22.9224C59.0167 23.2576 58.1257 23.4252 57.1203 23.4252C56.1149 23.4252 55.2198 23.2576 54.4351 22.9224C53.6585 22.5873 53.0005 22.1173 52.461 21.5124C51.9297 20.8994 51.5251 20.1841 51.2472 19.3667C50.9693 18.5411 50.8303 17.6461 50.8303 16.6815ZM54.3615 16.424V16.6815C54.3615 17.2374 54.4106 17.7564 54.5086 18.2387C54.6067 18.721 54.762 19.146 54.9746 19.5138C55.1953 19.8735 55.4814 20.1555 55.8329 20.3599C56.1843 20.5642 56.6135 20.6664 57.1203 20.6664C57.6107 20.6664 58.0317 20.5642 58.3832 20.3599C58.7347 20.1555 59.0167 19.8735 59.2292 19.5138C59.4417 19.146 59.597 18.721 59.6951 18.2387C59.8014 17.7564 59.8545 17.2374 59.8545 16.6815V16.424C59.8545 15.8845 59.8014 15.3777 59.6951 14.9036C59.597 14.4214 59.4376 13.9963 59.2169 13.6285C59.0044 13.2525 58.7224 12.9582 58.3709 12.7457C58.0194 12.5331 57.5944 12.4269 57.0958 12.4269C56.5971 12.4269 56.1721 12.5331 55.8206 12.7457C55.4773 12.9582 55.1953 13.2525 54.9746 13.6285C54.762 13.9963 54.6067 14.4214 54.5086 14.9036C54.4106 15.3777 54.3615 15.8845 54.3615 16.424ZM65.0042 16.6815V16.424C65.0042 15.4513 65.1432 14.5562 65.4211 13.7388C65.699 12.9132 66.1036 12.198 66.6349 11.5931C67.1663 10.9882 67.8202 10.5182 68.5967 10.1831C69.3733 9.83978 70.2643 9.66812 71.2697 9.66812C72.2751 9.66812 73.1701 9.83978 73.9549 10.1831C74.7396 10.5182 75.3976 10.9882 75.9289 11.5931C76.4684 12.198 76.8771 12.9132 77.155 13.7388C77.4329 14.5562 77.5719 15.4513 77.5719 16.424V16.6815C77.5719 17.6461 77.4329 18.5411 77.155 19.3667C76.8771 20.1841 76.4684 20.8994 75.9289 21.5124C75.3976 22.1173 74.7437 22.5873 73.9671 22.9224C73.1906 23.2576 72.2996 23.4252 71.2942 23.4252C70.2888 23.4252 69.3937 23.2576 68.609 22.9224C67.8325 22.5873 67.1744 22.1173 66.6349 21.5124C66.1036 20.8994 65.699 20.1841 65.4211 19.3667C65.1432 18.5411 65.0042 17.6461 65.0042 16.6815ZM68.5354 16.424V16.6815C68.5354 17.2374 68.5845 17.7564 68.6826 18.2387C68.7807 18.721 68.936 19.146 69.1485 19.5138C69.3692 19.8735 69.6553 20.1555 70.0068 20.3599C70.3583 20.5642 70.7874 20.6664 71.2942 20.6664C71.7846 20.6664 72.2056 20.5642 72.5571 20.3599C72.9086 20.1555 73.1906 19.8735 73.4031 19.5138C73.6156 19.146 73.7709 18.721 73.869 18.2387C73.9753 17.7564 74.0284 17.2374 74.0284 16.6815V16.424C74.0284 15.8845 73.9753 15.3777 73.869 14.9036C73.7709 14.4214 73.6116 13.9963 73.3909 13.6285C73.1783 13.2525 72.8963 12.9582 72.5448 12.7457C72.1933 12.5331 71.7683 12.4269 71.2697 12.4269C70.771 12.4269 70.346 12.5331 69.9945 12.7457C69.6512 12.9582 69.3692 13.2525 69.1485 13.6285C68.936 13.9963 68.7807 14.4214 68.6826 14.9036C68.5845 15.3777 68.5354 15.8845 68.5354 16.424ZM87.577 20.2863V4.34677H91.1328V23.1799H87.9326L87.577 20.2863ZM79.1904 16.706V16.4485C79.1904 15.435 79.3048 14.5154 79.5337 13.6898C79.7626 12.856 80.0977 12.1408 80.5391 11.5441C80.9805 10.9474 81.5241 10.4855 82.1698 10.1586C82.8156 9.8316 83.5513 9.66812 84.3769 9.66812C85.1534 9.66812 85.8319 9.8316 86.4122 10.1586C87.0007 10.4855 87.4994 10.9515 87.9081 11.5563C88.325 12.1531 88.6601 12.8601 88.9135 13.6775C89.1669 14.4868 89.3508 15.3737 89.4652 16.3382V16.9022C89.3508 17.8259 89.1669 18.6842 88.9135 19.4771C88.6601 20.2699 88.325 20.9647 87.9081 21.5615C87.4994 22.15 87.0007 22.6077 86.4122 22.9347C85.8237 23.2617 85.1371 23.4252 84.3523 23.4252C83.5268 23.4252 82.7911 23.2576 82.1453 22.9224C81.5077 22.5873 80.9683 22.1173 80.5269 21.5124C80.0936 20.9075 79.7626 20.1964 79.5337 19.379C79.3048 18.5616 79.1904 17.6706 79.1904 16.706ZM82.7216 16.4485V16.706C82.7216 17.2537 82.7625 17.7646 82.8442 18.2387C82.9341 18.7128 83.0772 19.1337 83.2734 19.5016C83.4777 19.8612 83.7393 20.1432 84.0581 20.3476C84.385 20.5438 84.7815 20.6419 85.2474 20.6419C85.8523 20.6419 86.3509 20.507 86.7433 20.2373C87.1356 19.9593 87.434 19.5792 87.6383 19.097C87.8509 18.6147 87.9735 18.0588 88.0062 17.4294V15.8232C87.9816 15.3083 87.9081 14.8464 87.7855 14.4377C87.671 14.0208 87.4994 13.6653 87.2705 13.371C87.0498 13.0767 86.7719 12.8479 86.4367 12.6844C86.1098 12.5209 85.7215 12.4391 85.2719 12.4391C84.8142 12.4391 84.4218 12.5454 84.0949 12.7579C83.7679 12.9623 83.5022 13.2443 83.2979 13.604C83.1017 13.9636 82.9546 14.3887 82.8565 14.8791C82.7666 15.3614 82.7216 15.8845 82.7216 16.4485ZM106.251 23.4252C105.221 23.4252 104.297 23.2617 103.48 22.9347C102.662 22.5996 101.968 22.1377 101.395 21.5492C100.831 20.9607 100.398 20.2781 100.096 19.5016C99.7932 18.7169 99.642 17.8831 99.642 17.0003V16.5099C99.642 15.5044 99.7851 14.5849 100.071 13.7511C100.357 12.9173 100.766 12.1939 101.297 11.5809C101.837 10.9678 102.491 10.4978 103.259 10.1708C104.027 9.83569 104.894 9.66812 105.858 9.66812C106.798 9.66812 107.632 9.82343 108.36 10.134C109.087 10.4447 109.696 10.8861 110.187 11.4583C110.685 12.0304 111.061 12.7171 111.315 13.5181C111.568 14.311 111.695 15.1938 111.695 16.1665V17.6379H101.15V15.2837H108.225V15.014C108.225 14.5235 108.135 14.0862 107.955 13.702C107.783 13.3097 107.522 12.9991 107.17 12.7702C106.819 12.5413 106.369 12.4269 105.822 12.4269C105.356 12.4269 104.955 12.5291 104.62 12.7334C104.285 12.9378 104.011 13.2239 103.799 13.5917C103.594 13.9595 103.439 14.3928 103.333 14.8914C103.235 15.3818 103.185 15.9213 103.185 16.5099V17.0003C103.185 17.5316 103.259 18.0221 103.406 18.4716C103.562 18.9212 103.778 19.3095 104.056 19.6365C104.342 19.9634 104.685 20.2168 105.086 20.3966C105.495 20.5765 105.957 20.6664 106.471 20.6664C107.109 20.6664 107.702 20.5438 108.249 20.2986C108.805 20.0452 109.283 19.6651 109.684 19.1583L111.4 21.022C111.123 21.4225 110.742 21.8067 110.26 22.1745C109.786 22.5424 109.214 22.8448 108.544 23.0818C107.873 23.3107 107.109 23.4252 106.251 23.4252ZM116.55 9.91335L118.745 13.9473L121.001 9.91335H124.765L121.013 16.3995L124.937 23.1799H121.16L118.769 18.913L116.379 23.1799H112.602L116.526 16.3995L112.774 9.91335H116.55ZM130.013 12.4637V28.2806H126.482V9.91335H129.755L130.013 12.4637ZM138.412 16.3995V16.657C138.412 17.6215 138.297 18.5166 138.069 19.3422C137.848 20.1678 137.521 20.8871 137.088 21.5002C136.654 22.105 136.115 22.5791 135.469 22.9224C134.832 23.2576 134.096 23.4252 133.262 23.4252C132.453 23.4252 131.75 23.2617 131.153 22.9347C130.557 22.6077 130.054 22.15 129.645 21.5615C129.245 20.9647 128.922 20.274 128.676 19.4893C128.431 18.7046 128.243 17.8627 128.112 16.9635V16.2892C128.243 15.3246 128.431 14.4418 128.676 13.6407C128.922 12.8315 129.245 12.1326 129.645 11.5441C130.054 10.9474 130.552 10.4855 131.141 10.1586C131.738 9.8316 132.437 9.66812 133.238 9.66812C134.08 9.66812 134.819 9.82752 135.457 10.1463C136.103 10.4651 136.642 10.9228 137.075 11.5196C137.517 12.1163 137.848 12.8274 138.069 13.653C138.297 14.4786 138.412 15.3941 138.412 16.3995ZM134.868 16.657V16.3995C134.868 15.8355 134.819 15.3164 134.721 14.8423C134.631 14.3601 134.484 13.9391 134.28 13.5794C134.084 13.2198 133.822 12.9419 133.495 12.7457C133.176 12.5413 132.788 12.4391 132.33 12.4391C131.848 12.4391 131.435 12.5168 131.092 12.6721C130.757 12.8274 130.483 13.0522 130.27 13.3465C130.058 13.6407 129.898 13.9922 129.792 14.4009C129.686 14.8096 129.621 15.2715 129.596 15.7864V17.4907C129.637 18.0956 129.751 18.6392 129.939 19.1215C130.127 19.5956 130.418 19.9716 130.81 20.2495C131.202 20.5274 131.717 20.6664 132.355 20.6664C132.821 20.6664 133.213 20.5642 133.532 20.3599C133.851 20.1473 134.108 19.8572 134.304 19.4893C134.509 19.1215 134.652 18.6964 134.733 18.2142C134.823 17.7319 134.868 17.2128 134.868 16.657ZM144.334 4.34677V23.1799H140.79V4.34677H144.334ZM146.688 16.6815V16.424C146.688 15.4513 146.827 14.5562 147.105 13.7388C147.383 12.9132 147.788 12.198 148.319 11.5931C148.85 10.9882 149.504 10.5182 150.281 10.1831C151.057 9.83978 151.948 9.66812 152.954 9.66812C153.959 9.66812 154.854 9.83978 155.639 10.1831C156.423 10.5182 157.082 10.9882 157.613 11.5931C158.152 12.198 158.561 12.9132 158.839 13.7388C159.117 14.5562 159.256 15.4513 159.256 16.424V16.6815C159.256 17.6461 159.117 18.5411 158.839 19.3667C158.561 20.1841 158.152 20.8994 157.613 21.5124C157.082 22.1173 156.428 22.5873 155.651 22.9224C154.874 23.2576 153.984 23.4252 152.978 23.4252C151.973 23.4252 151.078 23.2576 150.293 22.9224C149.516 22.5873 148.858 22.1173 148.319 21.5124C147.788 20.8994 147.383 20.1841 147.105 19.3667C146.827 18.5411 146.688 17.6461 146.688 16.6815ZM150.219 16.424V16.6815C150.219 17.2374 150.268 17.7564 150.366 18.2387C150.465 18.721 150.62 19.146 150.832 19.5138C151.053 19.8735 151.339 20.1555 151.691 20.3599C152.042 20.5642 152.471 20.6664 152.978 20.6664C153.469 20.6664 153.89 20.5642 154.241 20.3599C154.592 20.1555 154.874 19.8735 155.087 19.5138C155.3 19.146 155.455 18.721 155.553 18.2387C155.659 17.7564 155.712 17.2374 155.712 16.6815V16.424C155.712 15.8845 155.659 15.3777 155.553 14.9036C155.455 14.4214 155.295 13.9963 155.075 13.6285C154.862 13.2525 154.58 12.9582 154.229 12.7457C153.877 12.5331 153.452 12.4269 152.954 12.4269C152.455 12.4269 152.03 12.5331 151.678 12.7457C151.335 12.9582 151.053 13.2525 150.832 13.6285C150.62 13.9963 150.465 14.4214 150.366 14.9036C150.268 15.3777 150.219 15.8845 150.219 16.424ZM164.957 12.807V23.1799H161.426V9.91335H164.749L164.957 12.807ZM168.954 9.82752L168.893 13.1012C168.721 13.0767 168.513 13.0563 168.268 13.0399C168.031 13.0154 167.814 13.0032 167.618 13.0032C167.119 13.0032 166.686 13.0686 166.318 13.1993C165.959 13.322 165.656 13.5059 165.411 13.7511C165.174 13.9963 164.994 14.2947 164.871 14.6462C164.757 14.9976 164.692 15.3982 164.675 15.8478L163.964 15.6271C163.964 14.7688 164.05 13.98 164.222 13.2606C164.393 12.5331 164.643 11.8997 164.97 11.3602C165.305 10.8207 165.713 10.4038 166.196 10.1095C166.678 9.81526 167.23 9.66812 167.851 9.66812C168.047 9.66812 168.247 9.68447 168.452 9.71717C168.656 9.74169 168.824 9.77847 168.954 9.82752ZM176.483 23.4252C175.453 23.4252 174.529 23.2617 173.712 22.9347C172.894 22.5996 172.2 22.1377 171.627 21.5492C171.063 20.9607 170.63 20.2781 170.328 19.5016C170.025 18.7169 169.874 17.8831 169.874 17.0003V16.5099C169.874 15.5044 170.017 14.5849 170.303 13.7511C170.589 12.9173 170.998 12.1939 171.529 11.5809C172.069 10.9678 172.723 10.4978 173.491 10.1708C174.259 9.83569 175.126 9.66812 176.09 9.66812C177.03 9.66812 177.864 9.82343 178.592 10.134C179.319 10.4447 179.928 10.8861 180.419 11.4583C180.917 12.0304 181.293 12.7171 181.547 13.5181C181.8 14.311 181.927 15.1938 181.927 16.1665V17.6379H171.382V15.2837H178.457V15.014C178.457 14.5235 178.367 14.0862 178.187 13.702C178.015 13.3097 177.754 12.9991 177.402 12.7702C177.051 12.5413 176.601 12.4269 176.054 12.4269C175.588 12.4269 175.187 12.5291 174.852 12.7334C174.517 12.9378 174.243 13.2239 174.031 13.5917C173.826 13.9595 173.671 14.3928 173.565 14.8914C173.467 15.3818 173.417 15.9213 173.417 16.5099V17.0003C173.417 17.5316 173.491 18.0221 173.638 18.4716C173.793 18.9212 174.01 19.3095 174.288 19.6365C174.574 19.9634 174.917 20.2168 175.318 20.3966C175.727 20.5765 176.189 20.6664 176.703 20.6664C177.341 20.6664 177.934 20.5438 178.481 20.2986C179.037 20.0452 179.515 19.6651 179.916 19.1583L181.632 21.022C181.355 21.4225 180.974 21.8067 180.492 22.1745C180.018 22.5424 179.446 22.8448 178.776 23.0818C178.105 23.3107 177.341 23.4252 176.483 23.4252ZM187.469 12.807V23.1799H183.938V9.91335H187.26L187.469 12.807ZM191.466 9.82752L191.405 13.1012C191.233 13.0767 191.025 13.0563 190.779 13.0399C190.542 13.0154 190.326 13.0032 190.129 13.0032C189.631 13.0032 189.198 13.0686 188.83 13.1993C188.47 13.322 188.168 13.5059 187.922 13.7511C187.685 13.9963 187.506 14.2947 187.383 14.6462C187.269 14.9976 187.203 15.3982 187.187 15.8478L186.476 15.6271C186.476 14.7688 186.561 13.98 186.733 13.2606C186.905 12.5331 187.154 11.8997 187.481 11.3602C187.816 10.8207 188.225 10.4038 188.707 10.1095C189.189 9.81526 189.741 9.66812 190.362 9.66812C190.559 9.66812 190.759 9.68447 190.963 9.71717C191.168 9.74169 191.335 9.77847 191.466 9.82752Z" fill="white" fill-opacity="0.3"/>
<path d="M15.1885 0.486572L27.8346 7.78775V22.3901L15.1885 29.6913L2.54253 22.3901V7.78775L15.1885 0.486572Z" fill="white" fill-opacity="0.3"/>
</svg>
