<svg width="270" height="270" viewBox="0 0 270 270" fill="none" xmlns="http://www.w3.org/2000/svg">
<g clip-path="url(#clip0_1_159)">
<path d="M270 0H0V270H270V0Z" fill="#00070A"/>
<path d="M10 10H20V20H10V10ZM20 10H30V20H20V10ZM30 10H40V20H30V10ZM40 10H50V20H40V10ZM50 10H60V20H50V10ZM60 10H70V20H60V10ZM70 10H80V20H70V10ZM100 10H110V20H100V10ZM140 10H150V20H140V10ZM190 10H200V20H190V10ZM200 10H210V20H200V10ZM210 10H220V20H210V10ZM220 10H230V20H220V10ZM230 10H240V20H230V10ZM240 10H250V20H240V10ZM250 10H260V20H250V10ZM10 20H20V30H10V20ZM70 20H80V30H70V20ZM90 20H100V30H90V20ZM100 20H110V30H100V20ZM120 20H130V30H120V20ZM130 20H140V30H130V20ZM140 20H150V30H140V20ZM150 20H160V30H150V20ZM160 20H170V30H160V20ZM190 20H200V30H190V20ZM250 20H260V30H250V20ZM10 30H20V40H10V30ZM30 30H40V40H30V30ZM40 30H50V40H40V30ZM50 30H60V40H50V30ZM70 30H80V40H70V30ZM100 30H110V40H100V30ZM110 30H120V40H110V30ZM120 30H130V40H120V30ZM150 30H160V40H150V30ZM190 30H200V40H190V30ZM210 30H220V40H210V30ZM220 30H230V40H220V30ZM230 30H240V40H230V30ZM250 30H260V40H250V30ZM10 40H20V50H10V40ZM30 40H40V50H30V40ZM40 40H50V50H40V40ZM50 40H60V50H50V40ZM70 40H80V50H70V40ZM90 40H100V50H90V40ZM100 40H110V50H100V40ZM120 40H130V50H120V40ZM140 40H150V50H140V40ZM150 40H160V50H150V40ZM160 40H170V50H160V40ZM170 40H180V50H170V40ZM190 40H200V50H190V40ZM210 40H220V50H210V40ZM220 40H230V50H220V40ZM230 40H240V50H230V40ZM250 40H260V50H250V40ZM10 50H20V60H10V50ZM30 50H40V60H30V50ZM40 50H50V60H40V50ZM50 50H60V60H50V50ZM70 50H80V60H70V50ZM110 50H120V60H110V50ZM130 50H140V60H130V50ZM170 50H180V60H170V50ZM190 50H200V60H190V50ZM210 50H220V60H210V50ZM220 50H230V60H220V50ZM230 50H240V60H230V50ZM250 50H260V60H250V50ZM10 60H20V70H10V60ZM70 60H80V70H70V60ZM90 60H100V70H90V60ZM110 60H120V70H110V60ZM150 60H160V70H150V60ZM160 60H170V70H160V60ZM190 60H200V70H190V60ZM250 60H260V70H250V60ZM10 70H20V80H10V70ZM20 70H30V80H20V70ZM30 70H40V80H30V70ZM40 70H50V80H40V70ZM50 70H60V80H50V70ZM60 70H70V80H60V70ZM70 70H80V80H70V70ZM90 70H100V80H90V70ZM110 70H120V80H110V70ZM130 70H140V80H130V70ZM150 70H160V80H150V70ZM170 70H180V80H170V70ZM190 70H200V80H190V70ZM200 70H210V80H200V70ZM210 70H220V80H210V70ZM220 70H230V80H220V70ZM230 70H240V80H230V70ZM240 70H250V80H240V70ZM250 70H260V80H250V70ZM130 80H140V90H130V80ZM150 80H160V90H150V80ZM10 90H20V100H10V90ZM20 90H30V100H20V90ZM30 90H40V100H30V90ZM40 90H50V100H40V90ZM50 90H60V100H50V90ZM70 90H80V100H70V90ZM80 90H90V100H80V90ZM90 90H100V100H90V90ZM100 90H110V100H100V90ZM110 90H120V100H110V90ZM130 90H140V100H130V90ZM140 90H150V100H140V90ZM150 90H160V100H150V90ZM160 90H170V100H160V90ZM180 90H190V100H180V90ZM200 90H210V100H200V90ZM220 90H230V100H220V90ZM240 90H250V100H240V90ZM40 100H50V110H40V100ZM50 100H60V110H50V100ZM60 100H70V110H60V100ZM80 100H90V110H80V100ZM100 100H110V110H100V100ZM140 100H150V110H140V100ZM150 100H160V110H150V100ZM170 100H180V110H170V100ZM180 100H190V110H180V100ZM200 100H210V110H200V100ZM220 100H230V110H220V100ZM50 110H60V120H50V110ZM60 110H70V120H60V110ZM70 110H80V120H70V110ZM90 110H100V120H90V110ZM100 110H110V120H100V110ZM120 110H130V120H120V110ZM130 110H140V120H130V110ZM160 110H170V120H160V110ZM180 110H190V120H180V110ZM190 110H200V120H190V110ZM200 110H210V120H200V110ZM230 110H240V120H230V110ZM240 110H250V120H240V110ZM250 110H260V120H250V110ZM10 120H20V130H10V120ZM20 120H30V130H20V120ZM30 120H40V130H30V120ZM60 120H70V130H60V120ZM100 120H110V130H100V120ZM110 120H120V130H110V120ZM120 120H130V130H120V120ZM170 120H180V130H170V120ZM190 120H200V130H190V120ZM240 120H250V130H240V120ZM20 130H30V140H20V130ZM50 130H60V140H50V130ZM70 130H80V140H70V130ZM80 130H90V140H80V130ZM100 130H110V140H100V130ZM120 130H130V140H120V130ZM130 130H140V140H130V130ZM140 130H150V140H140V130ZM150 130H160V140H150V130ZM190 130H200V140H190V130ZM210 130H220V140H210V130ZM220 130H230V140H220V130ZM230 130H240V140H230V130ZM240 130H250V140H240V130ZM10 140H20V150H10V140ZM20 140H30V150H20V140ZM50 140H60V150H50V140ZM80 140H90V150H80V140ZM100 140H110V150H100V140ZM110 140H120V150H110V140ZM130 140H140V150H130V140ZM150 140H160V150H150V140ZM200 140H210V150H200V140ZM220 140H230V150H220V140ZM230 140H240V150H230V140ZM10 150H20V160H10V150ZM30 150H40V160H30V150ZM60 150H70V160H60V150ZM70 150H80V160H70V150ZM80 150H90V160H80V150ZM90 150H100V160H90V150ZM100 150H110V160H100V150ZM110 150H120V160H110V150ZM130 150H140V160H130V150ZM160 150H170V160H160V150ZM170 150H180V160H170V150ZM180 150H190V160H180V150ZM200 150H210V160H200V150ZM230 150H240V160H230V150ZM240 150H250V160H240V150ZM250 150H260V160H250V150ZM10 160H20V170H10V160ZM50 160H60V170H50V160ZM90 160H100V170H90V160ZM100 160H110V170H100V160ZM110 160H120V170H110V160ZM120 160H130V170H120V160ZM130 160H140V170H130V160ZM160 160H170V170H160V160ZM170 160H180V170H170V160ZM200 160H210V170H200V160ZM10 170H20V180H10V170ZM50 170H60V180H50V170ZM60 170H70V180H60V170ZM70 170H80V180H70V170ZM80 170H90V180H80V170ZM110 170H120V180H110V170ZM140 170H150V180H140V170ZM150 170H160V180H150V170ZM170 170H180V180H170V170ZM180 170H190V180H180V170ZM190 170H200V180H190V170ZM200 170H210V180H200V170ZM210 170H220V180H210V170ZM220 170H230V180H220V170ZM230 170H240V180H230V170ZM250 170H260V180H250V170ZM90 180H100V190H90V180ZM100 180H110V190H100V180ZM110 180H120V190H110V180ZM120 180H130V190H120V180ZM140 180H150V190H140V180ZM160 180H170V190H160V180ZM170 180H180V190H170V180ZM210 180H220V190H210V180ZM240 180H250V190H240V180ZM10 190H20V200H10V190ZM20 190H30V200H20V190ZM30 190H40V200H30V190ZM40 190H50V200H40V190ZM50 190H60V200H50V190ZM60 190H70V200H60V190ZM70 190H80V200H70V190ZM90 190H100V200H90V190ZM100 190H110V200H100V190ZM150 190H160V200H150V190ZM170 190H180V200H170V190ZM190 190H200V200H190V190ZM210 190H220V200H210V190ZM240 190H250V200H240V190ZM250 190H260V200H250V190ZM10 200H20V210H10V200ZM70 200H80V210H70V200ZM100 200H110V210H100V200ZM170 200H180V210H170V200ZM210 200H220V210H210V200ZM10 210H20V220H10V210ZM30 210H40V220H30V210ZM40 210H50V220H40V210ZM50 210H60V220H50V210ZM70 210H80V220H70V210ZM90 210H100V220H90V210ZM110 210H120V220H110V210ZM130 210H140V220H130V210ZM140 210H150V220H140V210ZM150 210H160V220H150V210ZM160 210H170V220H160V210ZM170 210H180V220H170V210ZM180 210H190V220H180V210ZM190 210H200V220H190V210ZM200 210H210V220H200V210ZM210 210H220V220H210V210ZM230 210H240V220H230V210ZM10 220H20V230H10V220ZM30 220H40V230H30V220ZM40 220H50V230H40V220ZM50 220H60V230H50V220ZM70 220H80V230H70V220ZM90 220H100V230H90V220ZM120 220H130V230H120V220ZM140 220H150V230H140V220ZM170 220H180V230H170V220ZM180 220H190V230H180V220ZM190 220H200V230H190V220ZM210 220H220V230H210V220ZM240 220H250V230H240V220ZM250 220H260V230H250V220ZM10 230H20V240H10V230ZM30 230H40V240H30V230ZM40 230H50V240H40V230ZM50 230H60V240H50V230ZM70 230H80V240H70V230ZM90 230H100V240H90V230ZM100 230H110V240H100V230ZM130 230H140V240H130V230ZM140 230H150V240H140V230ZM150 230H160V240H150V230ZM170 230H180V240H170V230ZM200 230H210V240H200V230ZM220 230H230V240H220V230ZM250 230H260V240H250V230ZM10 240H20V250H10V240ZM70 240H80V250H70V240ZM90 240H100V250H90V240ZM100 240H110V250H100V240ZM120 240H130V250H120V240ZM130 240H140V250H130V240ZM150 240H160V250H150V240ZM160 240H170V250H160V240ZM170 240H180V250H170V240ZM190 240H200V250H190V240ZM200 240H210V250H200V240ZM210 240H220V250H210V240ZM250 240H260V250H250V240ZM10 250H20V260H10V250ZM20 250H30V260H20V250ZM30 250H40V260H30V250ZM40 250H50V260H40V250ZM50 250H60V260H50V250ZM60 250H70V260H60V250ZM70 250H80V260H70V250ZM90 250H100V260H90V250ZM110 250H120V260H110V250ZM140 250H150V260H140V250ZM150 250H160V260H150V250ZM180 250H190V260H180V250ZM230 250H240V260H230V250ZM240 250H250V260H240V250ZM250 250H260V260H250V250Z" fill="#76797B"/>
</g>
<defs>
<clipPath id="clip0_1_159">
<rect width="270" height="270" fill="white"/>
</clipPath>
</defs>
</svg>
